<svg xmlns="http://www.w3.org/2000/svg" xmlns:xlink="http://www.w3.org/1999/xlink" x="0px"
	 y="0px" viewBox="0 0 283.5 283.5" style="enable-background:new 0 0 283.5 283.5;" xml:space="preserve">

<style type="text/css">
	.st0{fill:#E60012;}
</style>
<g>
	<path class="st0" d="M201,190.9h-3.5v9.2h3.5c2.5,0,4.6-2.1,4.6-4.6S203.5,190.9,201,190.9z"/>
	<ellipse transform="matrix(0.9732 -0.2298 0.2298 0.9732 -38.823 57.5679)" class="st0" cx="227.8" cy="195.5" rx="4.9" ry="4.9"/>
	<path class="st0" d="M0,0v283.5h283.5V0H0z M152.9,41.7c0-0.4,0.3-0.8,0.8-0.8h19.7c18,0,32.6,14.6,32.6,32.6v62
		c0,18-14.6,32.6-32.6,32.6h-19.6c-0.5,0-0.9-0.4-0.9-0.9V41.7z M48.6,187.6h3.2l7.8,10.4v-10.5h3.2v15.9h-3.1l-7.9-10.6v10.7h-3.2
		V187.6z M60.2,242.5c-6.5,0-11.6-2.4-13.1-3.2l2.8-5.1c1.3,0.8,5.2,2.8,10.7,2.8c6.8,0,7.9-2.4,8-3.8c0.1-2.6-3.2-3.2-9.3-4.2
		c-8.6-1.5-11.9-4-11.9-8.7c0-5.8,6.9-9,13.4-9c5.3,0,10.1,1.7,11.6,2.3l-2.1,5.2c-1.4-0.6-5.3-2.1-9.2-2.1c-3.4,0-5.7,0.5-6.7,1.7
		c-0.5,0.7-0.5,1.4-0.5,1.7c0.3,2.1,3.4,2.7,7.1,3.3h0.2c11.5,2,13.7,5,13.6,9.5C74.8,239.2,69.7,242.5,60.2,242.5z M74.9,187.5h3.5
		v15.9h-3.5V187.5z M112.5,241.5h-7.2l-5.6-19.8l-5.6,19.8h-7.2l-8.5-30h6.5l5.8,21.7l6.3-21.7h5.3l6.4,21.8l5.8-21.8h6.5
		L112.5,241.5z M90.4,203.5v-15.9h3.2l7.8,10.4v-10.5h3.2v15.9h-3.1l-7.9-10.6v10.7H90.4z M124.4,203.4H121v-12.5h-5.1v-3.4h13.5
		v3.4h-5V203.4z M135.1,241.6h-6.7v-30h6.7V241.6z M140.1,167.2c0,0.5-0.4,0.9-0.9,0.9h-27.8c-18,0-32.6-14.6-32.6-32.6v-62
		c0-18,14.6-32.6,32.6-32.6h27.8c0.5,0,0.9,0.4,0.9,0.9V167.2z M141,187.6h12.4v2.9h-9.1v3.4h8.4v2.9h-8.4v3.7h9.1v3H141V187.6z
		 M167.9,217.9h-9.4v23.6H152v-23.6h-9.5v-6.4h25.4V217.9z M169.8,203.5h-3.2v-15.9h3.2l7.8,10.4v-10.5h3.2v15.9l-3.1,0.1l-7.9-10.6
		V203.5z M188.7,236.1c3.4,0,6.5-1.9,8.2-4.7l4.9,4.2c-3,4.5-7.9,7.1-13.3,7.1c-8.8,0-16-7.2-16-16s7.2-16,16-16
		c5.4,0,10.3,2.7,13.3,7.1l-4.9,4.2c-1.7-2.9-4.8-4.7-8.2-4.7c-5.3,0-9.5,4.4-9.5,9.5C179.2,231.9,183.5,236.1,188.7,236.1z
		 M200.8,203.4h-6.6v-15.9h6.6c4.5,0,8.2,3.6,8.2,8C209,199.8,205.3,203.4,200.8,203.4z M235,241.6h-6.2v-12h-14v12h-6.2v-30h6.2
		v11.8h14v-11.8h6.2V241.6z M227.8,204c-4.7,0-8.5-3.8-8.5-8.5c0-4.7,3.8-8.5,8.5-8.5c4.6,0,8.4,3.8,8.5,8.5
		C236.3,200.2,232.5,204,227.8,204z M240.7,238.5h-1.2v3.1h-0.7v-3.1h-1.3v-0.7h3.2V238.5z M245.4,241.5h-0.7v-2.9l-1,2.9H243
		l-1-2.9v2.9h-0.7v-3.8h1.1l1,2.8l1-2.8h1V241.5z"/>
	<path class="st0" d="M95.6,57.7c-4.3,4.2-6.6,9.8-6.6,15.8v62c0,6,2.4,11.6,6.6,15.8c4.2,4.3,9.8,6.6,15.8,6.6h18.5V51.1h-18.5
		C105.4,51.1,99.8,53.5,95.6,57.7z M122.6,79.1c0,6.6-5.4,12-12,12c-6.6,0-12-5.4-12-12c0-6.7,5.3-12,12-12
		C117.2,67.1,122.6,72.5,122.6,79.1z"/>
	<path class="st0" d="M178,123.8c7.1,0,12.9-5.8,12.9-12.9S185.1,98,178,98c-7.1,0-12.8,5.8-12.9,12.9
		C165.1,118,170.9,123.8,178,123.8z"/>
</g>

</svg>
